<mxfile host="app.diagrams.net" modified="2023-09-05T05:12:53.493Z" agent="Mozilla/5.0 (Macintosh; Intel Mac OS X 10.15; rv:109.0) Gecko/20100101 Firefox/116.0" etag="xX0o6F8GUfVdWA_5nm_N" version="21.7.1" type="device">
  <diagram name="Page-1" id="mjspA0PIAPkoLd376Tkk">
    <mxGraphModel dx="1166" dy="614" grid="1" gridSize="10" guides="1" tooltips="1" connect="1" arrows="1" fold="1" page="1" pageScale="1" pageWidth="1169" pageHeight="827" math="0" shadow="0">
      <root>
        <mxCell id="0" />
        <mxCell id="1" parent="0" />
        <mxCell id="IAMInaEh3-bJ36sQtGoJ-46" value="ES: Prototype Board + &lt;u&gt;DFT&lt;/u&gt; Board Development" style="swimlane;whiteSpace=wrap;html=1;fontSize=14;fontFamily=JetBrains Mono;fontSource=https%3A%2F%2Ffonts.googleapis.com%2Fcss%3Ffamily%3DJetBrains%2BMono;fillColor=#d5e8d4;strokeColor=#82b366;startSize=30;" vertex="1" parent="1">
          <mxGeometry x="180" y="160" width="860" height="110" as="geometry" />
        </mxCell>
        <mxCell id="IAMInaEh3-bJ36sQtGoJ-47" style="edgeStyle=orthogonalEdgeStyle;rounded=0;orthogonalLoop=1;jettySize=auto;html=1;exitX=1;exitY=0.5;exitDx=0;exitDy=0;entryX=0;entryY=0.5;entryDx=0;entryDy=0;" edge="1" parent="IAMInaEh3-bJ36sQtGoJ-46" target="IAMInaEh3-bJ36sQtGoJ-50">
          <mxGeometry relative="1" as="geometry">
            <mxPoint x="140" y="70" as="sourcePoint" />
          </mxGeometry>
        </mxCell>
        <mxCell id="IAMInaEh3-bJ36sQtGoJ-49" style="edgeStyle=orthogonalEdgeStyle;rounded=0;orthogonalLoop=1;jettySize=auto;html=1;exitX=1;exitY=0.5;exitDx=0;exitDy=0;entryX=0;entryY=0.5;entryDx=0;entryDy=0;" edge="1" parent="IAMInaEh3-bJ36sQtGoJ-46" target="IAMInaEh3-bJ36sQtGoJ-52">
          <mxGeometry relative="1" as="geometry">
            <mxPoint x="280" y="70" as="sourcePoint" />
          </mxGeometry>
        </mxCell>
        <mxCell id="IAMInaEh3-bJ36sQtGoJ-51" style="edgeStyle=orthogonalEdgeStyle;rounded=0;orthogonalLoop=1;jettySize=auto;html=1;exitX=1;exitY=0.5;exitDx=0;exitDy=0;entryX=0;entryY=0.5;entryDx=0;entryDy=0;" edge="1" parent="IAMInaEh3-bJ36sQtGoJ-46" target="IAMInaEh3-bJ36sQtGoJ-53">
          <mxGeometry relative="1" as="geometry">
            <mxPoint x="420" y="70" as="sourcePoint" />
          </mxGeometry>
        </mxCell>
        <mxCell id="IAMInaEh3-bJ36sQtGoJ-54" style="edgeStyle=orthogonalEdgeStyle;rounded=0;orthogonalLoop=1;jettySize=auto;html=1;exitX=1;exitY=0.5;exitDx=0;exitDy=0;entryX=0;entryY=0.5;entryDx=0;entryDy=0;" edge="1" parent="IAMInaEh3-bJ36sQtGoJ-46" target="IAMInaEh3-bJ36sQtGoJ-40">
          <mxGeometry relative="1" as="geometry">
            <mxPoint x="140" y="70" as="sourcePoint" />
          </mxGeometry>
        </mxCell>
        <mxCell id="IAMInaEh3-bJ36sQtGoJ-55" style="edgeStyle=orthogonalEdgeStyle;rounded=0;orthogonalLoop=1;jettySize=auto;html=1;exitX=1;exitY=0.5;exitDx=0;exitDy=0;entryX=0;entryY=0.5;entryDx=0;entryDy=0;" edge="1" parent="IAMInaEh3-bJ36sQtGoJ-46" target="IAMInaEh3-bJ36sQtGoJ-41">
          <mxGeometry relative="1" as="geometry">
            <mxPoint x="280" y="70" as="sourcePoint" />
          </mxGeometry>
        </mxCell>
        <mxCell id="IAMInaEh3-bJ36sQtGoJ-56" style="edgeStyle=orthogonalEdgeStyle;rounded=0;orthogonalLoop=1;jettySize=auto;html=1;exitX=1;exitY=0.5;exitDx=0;exitDy=0;entryX=0;entryY=0.5;entryDx=0;entryDy=0;" edge="1" parent="IAMInaEh3-bJ36sQtGoJ-46" target="IAMInaEh3-bJ36sQtGoJ-43">
          <mxGeometry relative="1" as="geometry">
            <mxPoint x="420" y="70" as="sourcePoint" />
          </mxGeometry>
        </mxCell>
        <mxCell id="IAMInaEh3-bJ36sQtGoJ-74" style="edgeStyle=orthogonalEdgeStyle;rounded=0;orthogonalLoop=1;jettySize=auto;html=1;exitX=1;exitY=0.5;exitDx=0;exitDy=0;entryX=0;entryY=0.5;entryDx=0;entryDy=0;" edge="1" parent="IAMInaEh3-bJ36sQtGoJ-46" source="IAMInaEh3-bJ36sQtGoJ-8" target="IAMInaEh3-bJ36sQtGoJ-70">
          <mxGeometry relative="1" as="geometry" />
        </mxCell>
        <mxCell id="IAMInaEh3-bJ36sQtGoJ-8" value="&lt;div&gt;ES&lt;font data-font-src=&quot;https://fonts.googleapis.com/css?family=JetBrains+Mono&quot; face=&quot;JetBrains Mono&quot; style=&quot;font-size: 14px;&quot;&gt;1.&lt;/font&gt;&lt;/div&gt;&lt;div&gt;&lt;font data-font-src=&quot;https://fonts.googleapis.com/css?family=JetBrains+Mono&quot; face=&quot;JetBrains Mono&quot; style=&quot;font-size: 14px;&quot;&gt;Proto Part Procurement&lt;br&gt;&lt;/font&gt;&lt;/div&gt;" style="rounded=0;whiteSpace=wrap;html=1;fontFamily=Roboto;fontSource=https%3A%2F%2Ffonts.googleapis.com%2Fcss%3Ffamily%3DRoboto;fontSize=14;fillColor=#dae8fc;strokeColor=#6c8ebf;spacingRight=1;spacingBottom=0;spacingLeft=1;verticalAlign=top;spacing=2;" vertex="1" parent="IAMInaEh3-bJ36sQtGoJ-46">
          <mxGeometry x="20" y="40" width="120" height="60" as="geometry" />
        </mxCell>
        <mxCell id="IAMInaEh3-bJ36sQtGoJ-75" style="edgeStyle=orthogonalEdgeStyle;rounded=0;orthogonalLoop=1;jettySize=auto;html=1;exitX=1;exitY=0.5;exitDx=0;exitDy=0;entryX=0;entryY=0.5;entryDx=0;entryDy=0;" edge="1" parent="IAMInaEh3-bJ36sQtGoJ-46" source="IAMInaEh3-bJ36sQtGoJ-70" target="IAMInaEh3-bJ36sQtGoJ-69">
          <mxGeometry relative="1" as="geometry" />
        </mxCell>
        <mxCell id="IAMInaEh3-bJ36sQtGoJ-70" value="&lt;div&gt;ES&lt;font data-font-src=&quot;https://fonts.googleapis.com/css?family=JetBrains+Mono&quot; face=&quot;JetBrains Mono&quot; style=&quot;font-size: 14px;&quot;&gt;2.&lt;/font&gt;&lt;/div&gt;&lt;div&gt;&lt;font data-font-src=&quot;https://fonts.googleapis.com/css?family=JetBrains+Mono&quot; face=&quot;JetBrains Mono&quot; style=&quot;font-size: 14px;&quot;&gt;Component Prototypes&lt;/font&gt;&lt;/div&gt;" style="rounded=0;whiteSpace=wrap;html=1;fontFamily=Roboto;fontSource=https%3A%2F%2Ffonts.googleapis.com%2Fcss%3Ffamily%3DRoboto;fontSize=14;fillColor=#dae8fc;strokeColor=#6c8ebf;spacingRight=1;spacingBottom=0;spacingLeft=1;verticalAlign=top;spacing=2;" vertex="1" parent="IAMInaEh3-bJ36sQtGoJ-46">
          <mxGeometry x="160" y="40" width="120" height="60" as="geometry" />
        </mxCell>
        <mxCell id="IAMInaEh3-bJ36sQtGoJ-77" style="edgeStyle=orthogonalEdgeStyle;rounded=0;orthogonalLoop=1;jettySize=auto;html=1;exitX=1;exitY=0.5;exitDx=0;exitDy=0;entryX=0;entryY=0.5;entryDx=0;entryDy=0;" edge="1" parent="IAMInaEh3-bJ36sQtGoJ-46" source="IAMInaEh3-bJ36sQtGoJ-69" target="IAMInaEh3-bJ36sQtGoJ-76">
          <mxGeometry relative="1" as="geometry" />
        </mxCell>
        <mxCell id="IAMInaEh3-bJ36sQtGoJ-69" value="&lt;div&gt;ES&lt;font data-font-src=&quot;https://fonts.googleapis.com/css?family=JetBrains+Mono&quot; face=&quot;JetBrains Mono&quot; style=&quot;font-size: 14px;&quot;&gt;3.&lt;/font&gt;&lt;/div&gt;&lt;div&gt;&lt;font data-font-src=&quot;https://fonts.googleapis.com/css?family=JetBrains+Mono&quot; face=&quot;JetBrains Mono&quot; style=&quot;font-size: 14px;&quot;&gt;Proto Board Assembly&lt;/font&gt;&lt;/div&gt;" style="rounded=0;whiteSpace=wrap;html=1;fontFamily=Roboto;fontSource=https%3A%2F%2Ffonts.googleapis.com%2Fcss%3Ffamily%3DRoboto;fontSize=14;fillColor=#dae8fc;strokeColor=#6c8ebf;spacingRight=1;spacingBottom=0;spacingLeft=1;verticalAlign=top;spacing=2;" vertex="1" parent="IAMInaEh3-bJ36sQtGoJ-46">
          <mxGeometry x="300" y="40" width="120" height="60" as="geometry" />
        </mxCell>
        <mxCell id="IAMInaEh3-bJ36sQtGoJ-79" style="edgeStyle=orthogonalEdgeStyle;rounded=0;orthogonalLoop=1;jettySize=auto;html=1;exitX=1;exitY=0.5;exitDx=0;exitDy=0;entryX=0;entryY=0.5;entryDx=0;entryDy=0;" edge="1" parent="IAMInaEh3-bJ36sQtGoJ-46" source="IAMInaEh3-bJ36sQtGoJ-76" target="IAMInaEh3-bJ36sQtGoJ-78">
          <mxGeometry relative="1" as="geometry" />
        </mxCell>
        <mxCell id="IAMInaEh3-bJ36sQtGoJ-76" value="&lt;div&gt;ES&lt;font data-font-src=&quot;https://fonts.googleapis.com/css?family=JetBrains+Mono&quot; face=&quot;JetBrains Mono&quot; style=&quot;font-size: 14px;&quot;&gt;4.&lt;/font&gt;&lt;/div&gt;&lt;div&gt;&lt;font data-font-src=&quot;https://fonts.googleapis.com/css?family=JetBrains+Mono&quot; face=&quot;JetBrains Mono&quot; style=&quot;font-size: 14px;&quot;&gt;Full Proto Board Code&lt;/font&gt;&lt;/div&gt;" style="rounded=0;whiteSpace=wrap;html=1;fontFamily=Roboto;fontSource=https%3A%2F%2Ffonts.googleapis.com%2Fcss%3Ffamily%3DRoboto;fontSize=14;fillColor=#dae8fc;strokeColor=#6c8ebf;spacingRight=1;spacingBottom=0;spacingLeft=1;verticalAlign=top;spacing=2;" vertex="1" parent="IAMInaEh3-bJ36sQtGoJ-46">
          <mxGeometry x="440" y="40" width="120" height="60" as="geometry" />
        </mxCell>
        <mxCell id="IAMInaEh3-bJ36sQtGoJ-81" style="edgeStyle=orthogonalEdgeStyle;rounded=0;orthogonalLoop=1;jettySize=auto;html=1;exitX=1;exitY=0.5;exitDx=0;exitDy=0;entryX=0;entryY=0.5;entryDx=0;entryDy=0;" edge="1" parent="IAMInaEh3-bJ36sQtGoJ-46" source="IAMInaEh3-bJ36sQtGoJ-78" target="IAMInaEh3-bJ36sQtGoJ-80">
          <mxGeometry relative="1" as="geometry" />
        </mxCell>
        <mxCell id="IAMInaEh3-bJ36sQtGoJ-78" value="&lt;div&gt;ES&lt;font data-font-src=&quot;https://fonts.googleapis.com/css?family=JetBrains+Mono&quot; face=&quot;JetBrains Mono&quot; style=&quot;font-size: 14px;&quot;&gt;5.&lt;/font&gt;&lt;/div&gt;&lt;div&gt;&lt;font data-font-src=&quot;https://fonts.googleapis.com/css?family=JetBrains+Mono&quot; face=&quot;JetBrains Mono&quot; style=&quot;font-size: 14px;&quot;&gt;Full &lt;u&gt;DFT&lt;/u&gt; Board Code&lt;/font&gt;&lt;/div&gt;" style="rounded=0;whiteSpace=wrap;html=1;fontFamily=Roboto;fontSource=https%3A%2F%2Ffonts.googleapis.com%2Fcss%3Ffamily%3DRoboto;fontSize=14;fillColor=#dae8fc;strokeColor=#6c8ebf;spacingRight=1;spacingBottom=0;spacingLeft=1;verticalAlign=top;spacing=2;" vertex="1" parent="IAMInaEh3-bJ36sQtGoJ-46">
          <mxGeometry x="580" y="40" width="120" height="60" as="geometry" />
        </mxCell>
        <mxCell id="IAMInaEh3-bJ36sQtGoJ-80" value="&lt;div&gt;ES&lt;font data-font-src=&quot;https://fonts.googleapis.com/css?family=JetBrains+Mono&quot; face=&quot;JetBrains Mono&quot; style=&quot;font-size: 14px;&quot;&gt;6.&lt;/font&gt;&lt;/div&gt;&lt;div&gt;&lt;font data-font-src=&quot;https://fonts.googleapis.com/css?family=JetBrains+Mono&quot; face=&quot;JetBrains Mono&quot; style=&quot;font-size: 14px;&quot;&gt;Unit Tests&lt;/font&gt;&lt;/div&gt;" style="rounded=0;whiteSpace=wrap;html=1;fontFamily=Roboto;fontSource=https%3A%2F%2Ffonts.googleapis.com%2Fcss%3Ffamily%3DRoboto;fontSize=14;fillColor=#dae8fc;strokeColor=#6c8ebf;spacingRight=1;spacingBottom=0;spacingLeft=1;verticalAlign=top;spacing=2;" vertex="1" parent="IAMInaEh3-bJ36sQtGoJ-46">
          <mxGeometry x="720" y="40" width="120" height="60" as="geometry" />
        </mxCell>
        <mxCell id="IAMInaEh3-bJ36sQtGoJ-72" style="edgeStyle=orthogonalEdgeStyle;rounded=0;orthogonalLoop=1;jettySize=auto;html=1;exitX=1;exitY=0.5;exitDx=0;exitDy=0;entryX=0;entryY=0.5;entryDx=0;entryDy=0;" edge="1" parent="1" source="IAMInaEh3-bJ36sQtGoJ-1" target="IAMInaEh3-bJ36sQtGoJ-3">
          <mxGeometry relative="1" as="geometry">
            <Array as="points">
              <mxPoint x="160" y="160" />
              <mxPoint x="160" y="90" />
            </Array>
          </mxGeometry>
        </mxCell>
        <mxCell id="IAMInaEh3-bJ36sQtGoJ-73" style="edgeStyle=orthogonalEdgeStyle;rounded=0;orthogonalLoop=1;jettySize=auto;html=1;exitX=1;exitY=0.5;exitDx=0;exitDy=0;entryX=0;entryY=0.5;entryDx=0;entryDy=0;" edge="1" parent="1" source="IAMInaEh3-bJ36sQtGoJ-1" target="IAMInaEh3-bJ36sQtGoJ-8">
          <mxGeometry relative="1" as="geometry">
            <Array as="points">
              <mxPoint x="160" y="160" />
              <mxPoint x="160" y="230" />
            </Array>
          </mxGeometry>
        </mxCell>
        <mxCell id="IAMInaEh3-bJ36sQtGoJ-1" value="&lt;div&gt;A.&lt;/div&gt;&lt;div&gt;PRD (Scope Document)&lt;/div&gt;" style="rounded=0;whiteSpace=wrap;html=1;fontFamily=JetBrains Mono;fontSource=https%3A%2F%2Ffonts.googleapis.com%2Fcss%3Ffamily%3DJetBrains%2BMono;fontSize=14;fillColor=#e1d5e7;strokeColor=#9673a6;spacingRight=1;spacingBottom=0;spacingLeft=1;verticalAlign=top;spacing=2;" vertex="1" parent="1">
          <mxGeometry x="10" y="130" width="120" height="60" as="geometry" />
        </mxCell>
        <mxCell id="IAMInaEh3-bJ36sQtGoJ-4" style="edgeStyle=orthogonalEdgeStyle;rounded=0;orthogonalLoop=1;jettySize=auto;html=1;exitX=0.5;exitY=1;exitDx=0;exitDy=0;" edge="1" parent="1" source="IAMInaEh3-bJ36sQtGoJ-1" target="IAMInaEh3-bJ36sQtGoJ-1">
          <mxGeometry relative="1" as="geometry" />
        </mxCell>
        <mxCell id="IAMInaEh3-bJ36sQtGoJ-7" value="HE: &lt;u&gt;DFT&lt;/u&gt; &lt;font face=&quot;JetBrains Mono&quot;&gt;Board&lt;/font&gt; Development" style="swimlane;whiteSpace=wrap;html=1;fontSize=14;fontFamily=JetBrains Mono;fontSource=https%3A%2F%2Ffonts.googleapis.com%2Fcss%3Ffamily%3DJetBrains%2BMono;fillColor=#fad7ac;strokeColor=#b46504;startSize=30;" vertex="1" parent="1">
          <mxGeometry x="180" y="20" width="860" height="110" as="geometry" />
        </mxCell>
        <mxCell id="IAMInaEh3-bJ36sQtGoJ-29" style="edgeStyle=orthogonalEdgeStyle;rounded=0;orthogonalLoop=1;jettySize=auto;html=1;exitX=1;exitY=0.5;exitDx=0;exitDy=0;entryX=0;entryY=0.5;entryDx=0;entryDy=0;" edge="1" parent="IAMInaEh3-bJ36sQtGoJ-7" source="IAMInaEh3-bJ36sQtGoJ-3" target="IAMInaEh3-bJ36sQtGoJ-26">
          <mxGeometry relative="1" as="geometry" />
        </mxCell>
        <mxCell id="IAMInaEh3-bJ36sQtGoJ-3" value="&lt;div&gt;&lt;font data-font-src=&quot;https://fonts.googleapis.com/css?family=JetBrains+Mono&quot; face=&quot;JetBrains Mono&quot; style=&quot;font-size: 14px;&quot;&gt;HE1.&lt;/font&gt;&lt;/div&gt;&lt;div&gt;&lt;font data-font-src=&quot;https://fonts.googleapis.com/css?family=JetBrains+Mono&quot; face=&quot;JetBrains Mono&quot; style=&quot;font-size: 14px;&quot;&gt;Schematics&lt;/font&gt;&lt;/div&gt;" style="rounded=0;whiteSpace=wrap;html=1;fontFamily=Roboto;fontSource=https%3A%2F%2Ffonts.googleapis.com%2Fcss%3Ffamily%3DRoboto;fontSize=14;fillColor=#f8cecc;strokeColor=#b85450;spacingRight=1;spacingBottom=0;spacingLeft=1;verticalAlign=top;spacing=2;" vertex="1" parent="IAMInaEh3-bJ36sQtGoJ-7">
          <mxGeometry x="20" y="40" width="120" height="60" as="geometry" />
        </mxCell>
        <mxCell id="IAMInaEh3-bJ36sQtGoJ-30" style="edgeStyle=orthogonalEdgeStyle;rounded=0;orthogonalLoop=1;jettySize=auto;html=1;exitX=1;exitY=0.5;exitDx=0;exitDy=0;entryX=0;entryY=0.5;entryDx=0;entryDy=0;" edge="1" parent="IAMInaEh3-bJ36sQtGoJ-7" source="IAMInaEh3-bJ36sQtGoJ-26" target="IAMInaEh3-bJ36sQtGoJ-27">
          <mxGeometry relative="1" as="geometry" />
        </mxCell>
        <mxCell id="IAMInaEh3-bJ36sQtGoJ-26" value="&lt;div&gt;&lt;font data-font-src=&quot;https://fonts.googleapis.com/css?family=JetBrains+Mono&quot; face=&quot;JetBrains Mono&quot; style=&quot;font-size: 14px;&quot;&gt;HE2.&lt;/font&gt;&lt;/div&gt;&lt;div&gt;&lt;font data-font-src=&quot;https://fonts.googleapis.com/css?family=JetBrains+Mono&quot; face=&quot;JetBrains Mono&quot; style=&quot;font-size: 14px;&quot;&gt;Schematic Review&lt;/font&gt;&lt;/div&gt;" style="rounded=0;whiteSpace=wrap;html=1;fontFamily=Roboto;fontSource=https%3A%2F%2Ffonts.googleapis.com%2Fcss%3Ffamily%3DRoboto;fontSize=14;fillColor=#f8cecc;strokeColor=#b85450;spacingRight=1;spacingBottom=0;spacingLeft=1;verticalAlign=top;spacing=2;" vertex="1" parent="IAMInaEh3-bJ36sQtGoJ-7">
          <mxGeometry x="160" y="40" width="120" height="60" as="geometry" />
        </mxCell>
        <mxCell id="IAMInaEh3-bJ36sQtGoJ-35" style="edgeStyle=orthogonalEdgeStyle;rounded=0;orthogonalLoop=1;jettySize=auto;html=1;exitX=1;exitY=0.5;exitDx=0;exitDy=0;entryX=0;entryY=0.5;entryDx=0;entryDy=0;" edge="1" parent="IAMInaEh3-bJ36sQtGoJ-7" source="IAMInaEh3-bJ36sQtGoJ-27" target="IAMInaEh3-bJ36sQtGoJ-28">
          <mxGeometry relative="1" as="geometry" />
        </mxCell>
        <mxCell id="IAMInaEh3-bJ36sQtGoJ-27" value="&lt;div&gt;&lt;font face=&quot;JetBrains Mono&quot;&gt;HE3.&lt;/font&gt;&lt;/div&gt;&lt;div&gt;&lt;font face=&quot;JetBrains Mono&quot;&gt;Interlude N°1&lt;/font&gt;&lt;/div&gt;" style="rounded=0;whiteSpace=wrap;html=1;fontFamily=Roboto;fontSource=https%3A%2F%2Ffonts.googleapis.com%2Fcss%3Ffamily%3DRoboto;fontSize=14;fillColor=#f8cecc;strokeColor=#b85450;spacingRight=1;spacingBottom=0;spacingLeft=1;verticalAlign=top;spacing=2;" vertex="1" parent="IAMInaEh3-bJ36sQtGoJ-7">
          <mxGeometry x="300" y="40" width="120" height="60" as="geometry" />
        </mxCell>
        <mxCell id="IAMInaEh3-bJ36sQtGoJ-28" value="&lt;div&gt;&lt;font face=&quot;JetBrains Mono&quot;&gt;HE4.&lt;/font&gt;&lt;/div&gt;&lt;div&gt;&lt;font face=&quot;JetBrains Mono&quot;&gt;Schematic Signoff&lt;/font&gt;&lt;/div&gt;" style="rounded=0;whiteSpace=wrap;html=1;fontFamily=Roboto;fontSource=https%3A%2F%2Ffonts.googleapis.com%2Fcss%3Ffamily%3DRoboto;fontSize=14;fillColor=#f8cecc;strokeColor=#b85450;spacingRight=1;spacingBottom=0;spacingLeft=1;verticalAlign=top;spacing=2;" vertex="1" parent="IAMInaEh3-bJ36sQtGoJ-7">
          <mxGeometry x="440" y="40" width="120" height="60" as="geometry" />
        </mxCell>
        <mxCell id="IAMInaEh3-bJ36sQtGoJ-33" value="&lt;div&gt;&lt;font face=&quot;JetBrains Mono&quot;&gt;HE5.&lt;/font&gt;&lt;/div&gt;&lt;div&gt;&lt;font face=&quot;JetBrains Mono&quot;&gt;Layout&lt;/font&gt;&lt;/div&gt;" style="rounded=0;whiteSpace=wrap;html=1;fontFamily=Roboto;fontSource=https%3A%2F%2Ffonts.googleapis.com%2Fcss%3Ffamily%3DRoboto;fontSize=14;fillColor=#f8cecc;strokeColor=#b85450;spacingRight=1;spacingBottom=0;spacingLeft=1;verticalAlign=top;spacing=2;" vertex="1" parent="IAMInaEh3-bJ36sQtGoJ-7">
          <mxGeometry x="580" y="40" width="120" height="60" as="geometry" />
        </mxCell>
        <mxCell id="IAMInaEh3-bJ36sQtGoJ-36" style="edgeStyle=orthogonalEdgeStyle;rounded=0;orthogonalLoop=1;jettySize=auto;html=1;exitX=1;exitY=0.5;exitDx=0;exitDy=0;entryX=0;entryY=0.5;entryDx=0;entryDy=0;" edge="1" parent="IAMInaEh3-bJ36sQtGoJ-7" source="IAMInaEh3-bJ36sQtGoJ-28" target="IAMInaEh3-bJ36sQtGoJ-33">
          <mxGeometry relative="1" as="geometry" />
        </mxCell>
        <mxCell id="IAMInaEh3-bJ36sQtGoJ-34" value="&lt;div&gt;&lt;font face=&quot;JetBrains Mono&quot;&gt;HE6.&lt;/font&gt;&lt;/div&gt;&lt;div&gt;&lt;font face=&quot;JetBrains Mono&quot;&gt;Layout Review&lt;/font&gt;&lt;/div&gt;" style="rounded=0;whiteSpace=wrap;html=1;fontFamily=Roboto;fontSource=https%3A%2F%2Ffonts.googleapis.com%2Fcss%3Ffamily%3DRoboto;fontSize=14;fillColor=#f8cecc;strokeColor=#b85450;spacingRight=1;spacingBottom=0;spacingLeft=1;verticalAlign=top;spacing=2;" vertex="1" parent="IAMInaEh3-bJ36sQtGoJ-7">
          <mxGeometry x="720" y="40" width="120" height="60" as="geometry" />
        </mxCell>
        <mxCell id="IAMInaEh3-bJ36sQtGoJ-37" style="edgeStyle=orthogonalEdgeStyle;rounded=0;orthogonalLoop=1;jettySize=auto;html=1;exitX=1;exitY=0.5;exitDx=0;exitDy=0;entryX=0;entryY=0.5;entryDx=0;entryDy=0;" edge="1" parent="IAMInaEh3-bJ36sQtGoJ-7" source="IAMInaEh3-bJ36sQtGoJ-33" target="IAMInaEh3-bJ36sQtGoJ-34">
          <mxGeometry relative="1" as="geometry" />
        </mxCell>
        <mxCell id="IAMInaEh3-bJ36sQtGoJ-58" value="HE: DFT &lt;font face=&quot;JetBrains Mono&quot;&gt;Board Production&lt;br&gt;&lt;/font&gt;" style="swimlane;whiteSpace=wrap;html=1;fontSize=14;fontFamily=JetBrains Mono;fontSource=https%3A%2F%2Ffonts.googleapis.com%2Fcss%3Ffamily%3DJetBrains%2BMono;fillColor=#fad7ac;strokeColor=#b46504;startSize=30;" vertex="1" parent="1">
          <mxGeometry x="180" y="340" width="580" height="110" as="geometry" />
        </mxCell>
        <mxCell id="IAMInaEh3-bJ36sQtGoJ-59" style="edgeStyle=orthogonalEdgeStyle;rounded=0;orthogonalLoop=1;jettySize=auto;html=1;exitX=1;exitY=0.5;exitDx=0;exitDy=0;entryX=0;entryY=0.5;entryDx=0;entryDy=0;" edge="1" parent="IAMInaEh3-bJ36sQtGoJ-58">
          <mxGeometry relative="1" as="geometry">
            <mxPoint x="140" y="70" as="sourcePoint" />
          </mxGeometry>
        </mxCell>
        <mxCell id="IAMInaEh3-bJ36sQtGoJ-60" style="edgeStyle=orthogonalEdgeStyle;rounded=0;orthogonalLoop=1;jettySize=auto;html=1;exitX=1;exitY=0.5;exitDx=0;exitDy=0;entryX=0;entryY=0.5;entryDx=0;entryDy=0;" edge="1" parent="IAMInaEh3-bJ36sQtGoJ-58">
          <mxGeometry relative="1" as="geometry">
            <mxPoint x="280" y="70" as="sourcePoint" />
          </mxGeometry>
        </mxCell>
        <mxCell id="IAMInaEh3-bJ36sQtGoJ-61" style="edgeStyle=orthogonalEdgeStyle;rounded=0;orthogonalLoop=1;jettySize=auto;html=1;exitX=1;exitY=0.5;exitDx=0;exitDy=0;entryX=0;entryY=0.5;entryDx=0;entryDy=0;" edge="1" parent="IAMInaEh3-bJ36sQtGoJ-58">
          <mxGeometry relative="1" as="geometry">
            <mxPoint x="420" y="70" as="sourcePoint" />
          </mxGeometry>
        </mxCell>
        <mxCell id="IAMInaEh3-bJ36sQtGoJ-62" value="&lt;div&gt;&lt;font face=&quot;JetBrains Mono&quot;&gt;HE7.&lt;/font&gt;&lt;/div&gt;&lt;div&gt;&lt;font face=&quot;JetBrains Mono&quot;&gt;&lt;u&gt;DFT&lt;/u&gt; PCB Procurement&lt;br&gt;&lt;/font&gt;&lt;/div&gt;" style="rounded=0;whiteSpace=wrap;html=1;fontFamily=Roboto;fontSource=https%3A%2F%2Ffonts.googleapis.com%2Fcss%3Ffamily%3DRoboto;fontSize=14;fillColor=#f8cecc;strokeColor=#b85450;spacingRight=1;spacingBottom=0;spacingLeft=1;verticalAlign=top;spacing=2;" vertex="1" parent="IAMInaEh3-bJ36sQtGoJ-58">
          <mxGeometry x="20" y="40" width="120" height="60" as="geometry" />
        </mxCell>
        <mxCell id="IAMInaEh3-bJ36sQtGoJ-63" value="&lt;div&gt;&lt;font face=&quot;JetBrains Mono&quot;&gt;HE8.&lt;/font&gt;&lt;/div&gt;&lt;div&gt;&lt;font face=&quot;JetBrains Mono&quot;&gt;Interlude N°2&lt;/font&gt;&lt;/div&gt;" style="rounded=0;whiteSpace=wrap;html=1;fontFamily=Roboto;fontSource=https%3A%2F%2Ffonts.googleapis.com%2Fcss%3Ffamily%3DRoboto;fontSize=14;fillColor=#f8cecc;strokeColor=#b85450;spacingRight=1;spacingBottom=0;spacingLeft=1;verticalAlign=top;spacing=2;" vertex="1" parent="IAMInaEh3-bJ36sQtGoJ-58">
          <mxGeometry x="160" y="40" width="120" height="60" as="geometry" />
        </mxCell>
        <mxCell id="IAMInaEh3-bJ36sQtGoJ-64" style="edgeStyle=orthogonalEdgeStyle;rounded=0;orthogonalLoop=1;jettySize=auto;html=1;exitX=1;exitY=0.5;exitDx=0;exitDy=0;entryX=0;entryY=0.5;entryDx=0;entryDy=0;" edge="1" parent="IAMInaEh3-bJ36sQtGoJ-58" source="IAMInaEh3-bJ36sQtGoJ-62" target="IAMInaEh3-bJ36sQtGoJ-63">
          <mxGeometry relative="1" as="geometry" />
        </mxCell>
        <mxCell id="IAMInaEh3-bJ36sQtGoJ-65" value="&lt;div&gt;&lt;font face=&quot;JetBrains Mono&quot;&gt;HE9.&lt;/font&gt;&lt;/div&gt;&lt;div&gt;&lt;font face=&quot;JetBrains Mono&quot;&gt;&lt;u&gt;DFT&lt;/u&gt; Board &lt;/font&gt;&lt;font face=&quot;JetBrains Mono&quot;&gt;Assembly&lt;/font&gt;&lt;/div&gt;" style="rounded=0;whiteSpace=wrap;html=1;fontFamily=Roboto;fontSource=https%3A%2F%2Ffonts.googleapis.com%2Fcss%3Ffamily%3DRoboto;fontSize=14;fillColor=#f8cecc;strokeColor=#b85450;spacingRight=1;spacingBottom=0;spacingLeft=1;verticalAlign=top;spacing=2;" vertex="1" parent="IAMInaEh3-bJ36sQtGoJ-58">
          <mxGeometry x="300" y="40" width="120" height="60" as="geometry" />
        </mxCell>
        <mxCell id="IAMInaEh3-bJ36sQtGoJ-66" style="edgeStyle=orthogonalEdgeStyle;rounded=0;orthogonalLoop=1;jettySize=auto;html=1;exitX=1;exitY=0.5;exitDx=0;exitDy=0;entryX=0;entryY=0.5;entryDx=0;entryDy=0;" edge="1" parent="IAMInaEh3-bJ36sQtGoJ-58" source="IAMInaEh3-bJ36sQtGoJ-63" target="IAMInaEh3-bJ36sQtGoJ-65">
          <mxGeometry relative="1" as="geometry" />
        </mxCell>
        <mxCell id="IAMInaEh3-bJ36sQtGoJ-67" value="&lt;div&gt;&lt;font face=&quot;JetBrains Mono&quot;&gt;HE10.&lt;/font&gt;&lt;/div&gt;&lt;div&gt;&lt;font face=&quot;JetBrains Mono&quot;&gt;Testing&lt;/font&gt;&lt;/div&gt;" style="rounded=0;whiteSpace=wrap;html=1;fontFamily=Roboto;fontSource=https%3A%2F%2Ffonts.googleapis.com%2Fcss%3Ffamily%3DRoboto;fontSize=14;fillColor=#f8cecc;strokeColor=#b85450;spacingRight=1;spacingBottom=0;spacingLeft=1;verticalAlign=top;spacing=2;" vertex="1" parent="IAMInaEh3-bJ36sQtGoJ-58">
          <mxGeometry x="440" y="40" width="120" height="60" as="geometry" />
        </mxCell>
        <mxCell id="IAMInaEh3-bJ36sQtGoJ-68" style="edgeStyle=orthogonalEdgeStyle;rounded=0;orthogonalLoop=1;jettySize=auto;html=1;exitX=1;exitY=0.5;exitDx=0;exitDy=0;entryX=0;entryY=0.5;entryDx=0;entryDy=0;" edge="1" parent="IAMInaEh3-bJ36sQtGoJ-58" source="IAMInaEh3-bJ36sQtGoJ-65" target="IAMInaEh3-bJ36sQtGoJ-67">
          <mxGeometry relative="1" as="geometry" />
        </mxCell>
        <mxCell id="IAMInaEh3-bJ36sQtGoJ-97" value="ES: DFT Board Prod Code" style="swimlane;whiteSpace=wrap;html=1;fontSize=14;fontFamily=JetBrains Mono;fontSource=https%3A%2F%2Ffonts.googleapis.com%2Fcss%3Ffamily%3DJetBrains%2BMono;fillColor=#d5e8d4;strokeColor=#82b366;startSize=30;" vertex="1" parent="1">
          <mxGeometry x="180" y="480" width="440" height="110" as="geometry" />
        </mxCell>
        <mxCell id="IAMInaEh3-bJ36sQtGoJ-98" style="edgeStyle=orthogonalEdgeStyle;rounded=0;orthogonalLoop=1;jettySize=auto;html=1;exitX=1;exitY=0.5;exitDx=0;exitDy=0;entryX=0;entryY=0.5;entryDx=0;entryDy=0;" edge="1" parent="IAMInaEh3-bJ36sQtGoJ-97">
          <mxGeometry relative="1" as="geometry">
            <mxPoint x="140" y="70" as="sourcePoint" />
          </mxGeometry>
        </mxCell>
        <mxCell id="IAMInaEh3-bJ36sQtGoJ-99" style="edgeStyle=orthogonalEdgeStyle;rounded=0;orthogonalLoop=1;jettySize=auto;html=1;exitX=1;exitY=0.5;exitDx=0;exitDy=0;entryX=0;entryY=0.5;entryDx=0;entryDy=0;" edge="1" parent="IAMInaEh3-bJ36sQtGoJ-97">
          <mxGeometry relative="1" as="geometry">
            <mxPoint x="280" y="70" as="sourcePoint" />
          </mxGeometry>
        </mxCell>
        <mxCell id="IAMInaEh3-bJ36sQtGoJ-100" style="edgeStyle=orthogonalEdgeStyle;rounded=0;orthogonalLoop=1;jettySize=auto;html=1;exitX=1;exitY=0.5;exitDx=0;exitDy=0;entryX=0;entryY=0.5;entryDx=0;entryDy=0;" edge="1" parent="IAMInaEh3-bJ36sQtGoJ-97">
          <mxGeometry relative="1" as="geometry">
            <mxPoint x="420" y="70" as="sourcePoint" />
          </mxGeometry>
        </mxCell>
        <mxCell id="IAMInaEh3-bJ36sQtGoJ-101" style="edgeStyle=orthogonalEdgeStyle;rounded=0;orthogonalLoop=1;jettySize=auto;html=1;exitX=1;exitY=0.5;exitDx=0;exitDy=0;entryX=0;entryY=0.5;entryDx=0;entryDy=0;" edge="1" parent="IAMInaEh3-bJ36sQtGoJ-97">
          <mxGeometry relative="1" as="geometry">
            <mxPoint x="140" y="70" as="sourcePoint" />
          </mxGeometry>
        </mxCell>
        <mxCell id="IAMInaEh3-bJ36sQtGoJ-102" style="edgeStyle=orthogonalEdgeStyle;rounded=0;orthogonalLoop=1;jettySize=auto;html=1;exitX=1;exitY=0.5;exitDx=0;exitDy=0;entryX=0;entryY=0.5;entryDx=0;entryDy=0;" edge="1" parent="IAMInaEh3-bJ36sQtGoJ-97">
          <mxGeometry relative="1" as="geometry">
            <mxPoint x="280" y="70" as="sourcePoint" />
          </mxGeometry>
        </mxCell>
        <mxCell id="IAMInaEh3-bJ36sQtGoJ-103" style="edgeStyle=orthogonalEdgeStyle;rounded=0;orthogonalLoop=1;jettySize=auto;html=1;exitX=1;exitY=0.5;exitDx=0;exitDy=0;entryX=0;entryY=0.5;entryDx=0;entryDy=0;" edge="1" parent="IAMInaEh3-bJ36sQtGoJ-97">
          <mxGeometry relative="1" as="geometry">
            <mxPoint x="420" y="70" as="sourcePoint" />
          </mxGeometry>
        </mxCell>
        <mxCell id="IAMInaEh3-bJ36sQtGoJ-104" style="edgeStyle=orthogonalEdgeStyle;rounded=0;orthogonalLoop=1;jettySize=auto;html=1;exitX=1;exitY=0.5;exitDx=0;exitDy=0;entryX=0;entryY=0.5;entryDx=0;entryDy=0;" edge="1" parent="IAMInaEh3-bJ36sQtGoJ-97" source="IAMInaEh3-bJ36sQtGoJ-105" target="IAMInaEh3-bJ36sQtGoJ-107">
          <mxGeometry relative="1" as="geometry" />
        </mxCell>
        <mxCell id="IAMInaEh3-bJ36sQtGoJ-105" value="&lt;div&gt;ES&lt;font data-font-src=&quot;https://fonts.googleapis.com/css?family=JetBrains+Mono&quot; face=&quot;JetBrains Mono&quot; style=&quot;font-size: 14px;&quot;&gt;7.&lt;/font&gt;&lt;/div&gt;&lt;div&gt;&lt;font data-font-src=&quot;https://fonts.googleapis.com/css?family=JetBrains+Mono&quot; face=&quot;JetBrains Mono&quot; style=&quot;font-size: 14px;&quot;&gt;Code Review&lt;br&gt;&lt;/font&gt;&lt;/div&gt;" style="rounded=0;whiteSpace=wrap;html=1;fontFamily=Roboto;fontSource=https%3A%2F%2Ffonts.googleapis.com%2Fcss%3Ffamily%3DRoboto;fontSize=14;fillColor=#dae8fc;strokeColor=#6c8ebf;spacingRight=1;spacingBottom=0;spacingLeft=1;verticalAlign=top;spacing=2;" vertex="1" parent="IAMInaEh3-bJ36sQtGoJ-97">
          <mxGeometry x="20" y="40" width="120" height="60" as="geometry" />
        </mxCell>
        <mxCell id="IAMInaEh3-bJ36sQtGoJ-106" style="edgeStyle=orthogonalEdgeStyle;rounded=0;orthogonalLoop=1;jettySize=auto;html=1;exitX=1;exitY=0.5;exitDx=0;exitDy=0;entryX=0;entryY=0.5;entryDx=0;entryDy=0;" edge="1" parent="IAMInaEh3-bJ36sQtGoJ-97" source="IAMInaEh3-bJ36sQtGoJ-107" target="IAMInaEh3-bJ36sQtGoJ-109">
          <mxGeometry relative="1" as="geometry" />
        </mxCell>
        <mxCell id="IAMInaEh3-bJ36sQtGoJ-107" value="&lt;div&gt;ES&lt;font data-font-src=&quot;https://fonts.googleapis.com/css?family=JetBrains+Mono&quot; face=&quot;JetBrains Mono&quot; style=&quot;font-size: 14px;&quot;&gt;8.&lt;/font&gt;&lt;/div&gt;&lt;div&gt;&lt;font data-font-src=&quot;https://fonts.googleapis.com/css?family=JetBrains+Mono&quot; face=&quot;JetBrains Mono&quot; style=&quot;font-size: 14px;&quot;&gt;Documentation&lt;br&gt;&lt;/font&gt;&lt;/div&gt;" style="rounded=0;whiteSpace=wrap;html=1;fontFamily=Roboto;fontSource=https%3A%2F%2Ffonts.googleapis.com%2Fcss%3Ffamily%3DRoboto;fontSize=14;fillColor=#dae8fc;strokeColor=#6c8ebf;spacingRight=1;spacingBottom=0;spacingLeft=1;verticalAlign=top;spacing=2;" vertex="1" parent="IAMInaEh3-bJ36sQtGoJ-97">
          <mxGeometry x="160" y="40" width="120" height="60" as="geometry" />
        </mxCell>
        <mxCell id="IAMInaEh3-bJ36sQtGoJ-109" value="&lt;div&gt;ES&lt;font data-font-src=&quot;https://fonts.googleapis.com/css?family=JetBrains+Mono&quot; face=&quot;JetBrains Mono&quot; style=&quot;font-size: 14px;&quot;&gt;9.&lt;/font&gt;&lt;/div&gt;&lt;div&gt;&lt;font data-font-src=&quot;https://fonts.googleapis.com/css?family=JetBrains+Mono&quot; face=&quot;JetBrains Mono&quot; style=&quot;font-size: 14px;&quot;&gt;Testing&lt;br&gt;&lt;/font&gt;&lt;/div&gt;" style="rounded=0;whiteSpace=wrap;html=1;fontFamily=Roboto;fontSource=https%3A%2F%2Ffonts.googleapis.com%2Fcss%3Ffamily%3DRoboto;fontSize=14;fillColor=#dae8fc;strokeColor=#6c8ebf;spacingRight=1;spacingBottom=0;spacingLeft=1;verticalAlign=top;spacing=2;" vertex="1" parent="IAMInaEh3-bJ36sQtGoJ-97">
          <mxGeometry x="300" y="40" width="120" height="60" as="geometry" />
        </mxCell>
        <mxCell id="IAMInaEh3-bJ36sQtGoJ-110" style="edgeStyle=orthogonalEdgeStyle;rounded=0;orthogonalLoop=1;jettySize=auto;html=1;exitX=1;exitY=0.5;exitDx=0;exitDy=0;entryX=0;entryY=0.5;entryDx=0;entryDy=0;" edge="1" parent="IAMInaEh3-bJ36sQtGoJ-97" source="IAMInaEh3-bJ36sQtGoJ-111">
          <mxGeometry relative="1" as="geometry">
            <mxPoint x="580" y="70" as="targetPoint" />
          </mxGeometry>
        </mxCell>
        <mxCell id="IAMInaEh3-bJ36sQtGoJ-112" style="edgeStyle=orthogonalEdgeStyle;rounded=0;orthogonalLoop=1;jettySize=auto;html=1;exitX=1;exitY=0.5;exitDx=0;exitDy=0;entryX=0;entryY=0.5;entryDx=0;entryDy=0;" edge="1" parent="IAMInaEh3-bJ36sQtGoJ-97" source="IAMInaEh3-bJ36sQtGoJ-113">
          <mxGeometry relative="1" as="geometry">
            <mxPoint x="720" y="70" as="targetPoint" />
          </mxGeometry>
        </mxCell>
        <mxCell id="IAMInaEh3-bJ36sQtGoJ-131" style="edgeStyle=orthogonalEdgeStyle;rounded=0;orthogonalLoop=1;jettySize=auto;html=1;exitX=1;exitY=0.5;exitDx=0;exitDy=0;entryX=0.5;entryY=1;entryDx=0;entryDy=0;" edge="1" parent="1" source="IAMInaEh3-bJ36sQtGoJ-120" target="IAMInaEh3-bJ36sQtGoJ-1">
          <mxGeometry relative="1" as="geometry">
            <Array as="points">
              <mxPoint x="960" y="480" />
              <mxPoint x="960" y="630" />
              <mxPoint x="70" y="630" />
            </Array>
          </mxGeometry>
        </mxCell>
        <mxCell id="IAMInaEh3-bJ36sQtGoJ-120" value="&lt;div&gt;B.&lt;/div&gt;&lt;div&gt;&lt;u&gt;DFT&lt;/u&gt; Review&lt;/div&gt;" style="rounded=0;whiteSpace=wrap;html=1;fontFamily=JetBrains Mono;fontSource=https%3A%2F%2Ffonts.googleapis.com%2Fcss%3Ffamily%3DJetBrains%2BMono;fontSize=14;fillColor=#e1d5e7;strokeColor=#9673a6;spacingRight=1;spacingBottom=0;spacingLeft=1;verticalAlign=top;spacing=2;" vertex="1" parent="1">
          <mxGeometry x="800" y="450" width="120" height="60" as="geometry" />
        </mxCell>
        <mxCell id="IAMInaEh3-bJ36sQtGoJ-122" value="" style="edgeStyle=orthogonalEdgeStyle;rounded=0;orthogonalLoop=1;jettySize=auto;html=1;" edge="1" parent="1" source="IAMInaEh3-bJ36sQtGoJ-111">
          <mxGeometry relative="1" as="geometry">
            <mxPoint x="820" y="550" as="targetPoint" />
          </mxGeometry>
        </mxCell>
        <mxCell id="IAMInaEh3-bJ36sQtGoJ-123" style="edgeStyle=orthogonalEdgeStyle;rounded=0;orthogonalLoop=1;jettySize=auto;html=1;exitX=1;exitY=0.5;exitDx=0;exitDy=0;entryX=0;entryY=0.5;entryDx=0;entryDy=0;" edge="1" parent="1" source="IAMInaEh3-bJ36sQtGoJ-67" target="IAMInaEh3-bJ36sQtGoJ-120">
          <mxGeometry relative="1" as="geometry" />
        </mxCell>
        <mxCell id="IAMInaEh3-bJ36sQtGoJ-124" style="edgeStyle=orthogonalEdgeStyle;rounded=0;orthogonalLoop=1;jettySize=auto;html=1;exitX=1;exitY=0.5;exitDx=0;exitDy=0;entryX=0;entryY=0.5;entryDx=0;entryDy=0;" edge="1" parent="1" source="IAMInaEh3-bJ36sQtGoJ-109" target="IAMInaEh3-bJ36sQtGoJ-120">
          <mxGeometry relative="1" as="geometry" />
        </mxCell>
        <mxCell id="IAMInaEh3-bJ36sQtGoJ-126" style="edgeStyle=orthogonalEdgeStyle;rounded=0;orthogonalLoop=1;jettySize=auto;html=1;exitX=1;exitY=0.5;exitDx=0;exitDy=0;entryX=0;entryY=0.5;entryDx=0;entryDy=0;" edge="1" parent="1" source="IAMInaEh3-bJ36sQtGoJ-80" target="IAMInaEh3-bJ36sQtGoJ-105">
          <mxGeometry relative="1" as="geometry">
            <Array as="points">
              <mxPoint x="1080" y="230" />
              <mxPoint x="1080" y="310" />
              <mxPoint x="140" y="310" />
              <mxPoint x="140" y="550" />
            </Array>
          </mxGeometry>
        </mxCell>
        <mxCell id="IAMInaEh3-bJ36sQtGoJ-127" style="edgeStyle=orthogonalEdgeStyle;rounded=0;orthogonalLoop=1;jettySize=auto;html=1;exitX=1;exitY=0.5;exitDx=0;exitDy=0;entryX=0;entryY=0.5;entryDx=0;entryDy=0;" edge="1" parent="1" source="IAMInaEh3-bJ36sQtGoJ-34" target="IAMInaEh3-bJ36sQtGoJ-62">
          <mxGeometry relative="1" as="geometry">
            <Array as="points">
              <mxPoint x="1070" y="90" />
              <mxPoint x="1070" y="300" />
              <mxPoint x="150" y="300" />
              <mxPoint x="150" y="410" />
            </Array>
          </mxGeometry>
        </mxCell>
        <mxCell id="IAMInaEh3-bJ36sQtGoJ-25" value="" style="rounded=0;whiteSpace=wrap;html=1;fillColor=none;dashed=1;dashPattern=8 8;" vertex="1" parent="1">
          <mxGeometry x="10" y="710" width="360" height="110" as="geometry" />
        </mxCell>
        <mxCell id="IAMInaEh3-bJ36sQtGoJ-12" value="&lt;font style=&quot;font-size: 14px;&quot;&gt;&lt;i style=&quot;font-size: 14px;&quot;&gt;HE + ES&lt;/i&gt;&lt;br style=&quot;font-size: 14px;&quot;&gt;&lt;/font&gt;" style="rounded=0;whiteSpace=wrap;html=1;fillColor=#e1d5e7;strokeColor=#9673a6;fontFamily=JetBrains Mono;fontSource=https%3A%2F%2Ffonts.googleapis.com%2Fcss%3Ffamily%3DJetBrains%2BMono;fontSize=14;" vertex="1" parent="1">
          <mxGeometry x="260" y="720" width="100" height="40" as="geometry" />
        </mxCell>
        <mxCell id="IAMInaEh3-bJ36sQtGoJ-13" value="&lt;font style=&quot;font-size: 14px;&quot;&gt;&lt;i style=&quot;font-size: 14px;&quot;&gt;HE&lt;/i&gt;&lt;br&gt;&lt;/font&gt;" style="rounded=0;whiteSpace=wrap;html=1;fillColor=#f8cecc;strokeColor=#b85450;fontFamily=JetBrains Mono;fontSource=https%3A%2F%2Ffonts.googleapis.com%2Fcss%3Ffamily%3DJetBrains%2BMono;fontSize=14;" vertex="1" parent="1">
          <mxGeometry x="20" y="770" width="100" height="40" as="geometry" />
        </mxCell>
        <mxCell id="IAMInaEh3-bJ36sQtGoJ-14" value="&lt;font style=&quot;font-size: 14px;&quot;&gt;&lt;i style=&quot;font-size: 14px;&quot;&gt;ES&lt;/i&gt;&lt;br&gt;&lt;/font&gt;" style="rounded=0;whiteSpace=wrap;html=1;fillColor=#dae8fc;strokeColor=#6c8ebf;fontFamily=JetBrains Mono;fontSource=https%3A%2F%2Ffonts.googleapis.com%2Fcss%3Ffamily%3DJetBrains%2BMono;fontSize=14;" vertex="1" parent="1">
          <mxGeometry x="140" y="770" width="100" height="40" as="geometry" />
        </mxCell>
        <mxCell id="IAMInaEh3-bJ36sQtGoJ-17" value="&lt;b&gt;Legend&lt;/b&gt;" style="text;strokeColor=none;align=left;fillColor=none;html=1;verticalAlign=middle;whiteSpace=wrap;rounded=0;fontFamily=JetBrains Mono;fontSource=https%3A%2F%2Ffonts.googleapis.com%2Fcss%3Ffamily%3DJetBrains%2BMono;fontSize=14;fontStyle=4" vertex="1" parent="1">
          <mxGeometry x="20" y="720" width="100" height="30" as="geometry" />
        </mxCell>
        <mxCell id="IAMInaEh3-bJ36sQtGoJ-18" style="edgeStyle=orthogonalEdgeStyle;rounded=0;orthogonalLoop=1;jettySize=auto;html=1;entryX=0.5;entryY=0;entryDx=0;entryDy=0;fontFamily=JetBrains Mono;fontSource=https%3A%2F%2Ffonts.googleapis.com%2Fcss%3Ffamily%3DJetBrains%2BMono;" edge="1" parent="1">
          <mxGeometry relative="1" as="geometry">
            <mxPoint x="260" y="770" as="sourcePoint" />
            <mxPoint x="260" y="810" as="targetPoint" />
          </mxGeometry>
        </mxCell>
        <mxCell id="IAMInaEh3-bJ36sQtGoJ-19" value="Linear Dependency" style="text;strokeColor=none;align=left;fillColor=none;html=1;verticalAlign=middle;whiteSpace=wrap;rounded=0;fontFamily=JetBrains Mono;fontSource=https%3A%2F%2Ffonts.googleapis.com%2Fcss%3Ffamily%3DJetBrains%2BMono;fontSize=14;" vertex="1" parent="1">
          <mxGeometry x="270" y="770" width="90" height="40" as="geometry" />
        </mxCell>
        <mxCell id="IAMInaEh3-bJ36sQtGoJ-21" value="Phase" style="swimlane;whiteSpace=wrap;html=1;fontSize=14;fontFamily=JetBrains Mono;fontSource=https%3A%2F%2Ffonts.googleapis.com%2Fcss%3Ffamily%3DJetBrains%2BMono;fillColor=#fff2cc;strokeColor=#d6b656;startSize=30;" vertex="1" parent="1">
          <mxGeometry x="140" y="720" width="100" height="40" as="geometry" />
        </mxCell>
        <mxCell id="IAMInaEh3-bJ36sQtGoJ-133" value="&lt;div&gt;Repeat cycle for &lt;u&gt;DFM&lt;/u&gt; instead of &lt;u&gt;DFT&lt;/u&gt;&lt;br&gt;&lt;/div&gt;" style="text;strokeColor=none;align=left;fillColor=none;html=1;verticalAlign=middle;whiteSpace=wrap;rounded=0;fontFamily=JetBrains Mono;fontSource=https%3A%2F%2Ffonts.googleapis.com%2Fcss%3Ffamily%3DJetBrains%2BMono;fontSize=14;fontStyle=0" vertex="1" parent="1">
          <mxGeometry x="540" y="630" width="240" height="50" as="geometry" />
        </mxCell>
      </root>
    </mxGraphModel>
  </diagram>
</mxfile>
